<mxfile host="app.diagrams.net" agent="Mozilla/5.0 (Windows NT 10.0; Win64; x64) AppleWebKit/537.36 (KHTML, like Gecko) Chrome/133.0.0.0 Safari/537.36" version="24.9.0">
  <diagram name="第 1 页" id="EiEt9z7oGLuMgroSebna">
    <mxGraphModel dx="2136" dy="1481" grid="0" gridSize="10" guides="1" tooltips="1" connect="1" arrows="1" fold="1" page="0" pageScale="1" pageWidth="827" pageHeight="1169" math="0" shadow="0">
      <root>
        <mxCell id="0" />
        <mxCell id="1" parent="0" />
        <mxCell id="u-NJwBv3rZono-T8brO3-120" value="" style="rounded=1;whiteSpace=wrap;html=1;fillColor=none;dashed=1;strokeColor=#b85450;strokeWidth=3;" vertex="1" parent="1">
          <mxGeometry x="1140" y="426.09999999999997" width="500" height="210" as="geometry" />
        </mxCell>
        <mxCell id="9CU5N9PSg61jmfIPhNSQ-1" value="" style="rounded=1;whiteSpace=wrap;html=1;fillColor=#cce5ff;strokeColor=#36393d;fontFamily=Times New Roman;" parent="1" vertex="1">
          <mxGeometry x="-180" y="-50" width="810" height="224" as="geometry" />
        </mxCell>
        <mxCell id="u-NJwBv3rZono-T8brO3-2" value="" style="shape=card;whiteSpace=wrap;html=1;fillColor=#dae8fc;strokeColor=#6c8ebf;fontFamily=Times New Roman;" vertex="1" parent="1">
          <mxGeometry x="430" y="-20" width="160" height="100" as="geometry" />
        </mxCell>
        <mxCell id="9CU5N9PSg61jmfIPhNSQ-2" value="表现层" style="text;html=1;align=center;verticalAlign=middle;whiteSpace=wrap;rounded=0;fontSize=26;fontFamily=Times New Roman;" parent="1" vertex="1">
          <mxGeometry x="-90" y="-32.1" width="89" height="30" as="geometry" />
        </mxCell>
        <mxCell id="9CU5N9PSg61jmfIPhNSQ-3" value="" style="shape=image;verticalLabelPosition=bottom;labelBackgroundColor=default;verticalAlign=top;aspect=fixed;imageAspect=0;image=data:image/svg+xml,&lt;svg xmlns=&#39;http://www.w3.org/2000/svg&#39; viewBox=&#39;0 0 24 24&#39; fill=&#39;%231976D2&#39;&gt;&lt;path d=&#39;M11.99 2C6.47 2 2 6.48 2 12s4.47 10 9.99 10C17.52 22 22 17.52 22 12S17.52 2 11.99 2zm6.93 6h-2.95c-.32-1.25-.78-2.45-1.38-3.56 1.84.63 3.37 1.91 4.33 3.56zM12 4.04c.83 1.2 1.48 2.53 1.91 3.96h-3.82c.43-1.43 1.08-2.76 1.91-3.96zM4.26 14C4.1 13.36 4 12.69 4 12s.1-1.36.26-2h3.38c-.08.66-.14 1.32-.14 2s.06 1.34.14 2H4.26zm.82 2h2.95c.32 1.25.78 2.45 1.38 3.56-1.84-.63-3.37-1.9-4.33-3.56zm2.95-8H5.08c.96-1.66 2.49-2.93 4.33-3.56C8.81 5.55 8.35 6.75 8.03 8zM12 19.96c-.83-1.2-1.48-2.53-1.91-3.96h3.82c-.43 1.43-1.08 2.76-1.91 3.96zM14.34 14H9.66c-.09-.66-.16-1.32-.16-2s.07-1.35.16-2h4.68c.09.65.16 1.32.16 2s-.07 1.34-.16 2zm.25 5.56c.6-1.11 1.06-2.31 1.38-3.56h2.95c-.96 1.65-2.49 2.93-4.33 3.56zM16.36 14c.08-.66.14-1.32.14-2s-.06-1.34-.14-2h3.38c.16.64.26 1.31.26 2s-.1 1.36-.26 2h-3.38z&#39;/&gt;&lt;/svg&gt;;fontFamily=Times New Roman;" parent="1" vertex="1">
          <mxGeometry x="-144.1" y="-38" width="41.8" height="41.8" as="geometry" />
        </mxCell>
        <mxCell id="u-NJwBv3rZono-T8brO3-1" value="" style="rounded=1;whiteSpace=wrap;html=1;fontFamily=Times New Roman;" vertex="1" parent="1">
          <mxGeometry x="-150" y="10" width="760" height="140" as="geometry" />
        </mxCell>
        <mxCell id="u-NJwBv3rZono-T8brO3-3" value="&lt;font style=&quot;font-size: 18px;&quot;&gt;&lt;b&gt;ArkUI&lt;/b&gt;&lt;/font&gt;" style="text;html=1;align=center;verticalAlign=middle;whiteSpace=wrap;rounded=0;fontFamily=Times New Roman;" vertex="1" parent="1">
          <mxGeometry x="470" y="-20" width="100" height="30" as="geometry" />
        </mxCell>
        <mxCell id="u-NJwBv3rZono-T8brO3-4" value="运动首页" style="shape=note;whiteSpace=wrap;html=1;backgroundOutline=1;darkOpacity=0.05;fillColor=#dae8fc;strokeColor=#6c8ebf;fontFamily=Times New Roman;fontSize=16;" vertex="1" parent="1">
          <mxGeometry x="-120" y="22.5" width="90" height="115" as="geometry" />
        </mxCell>
        <mxCell id="u-NJwBv3rZono-T8brO3-5" value="运动记录页" style="shape=note;whiteSpace=wrap;html=1;backgroundOutline=1;darkOpacity=0.05;fillColor=#dae8fc;strokeColor=#6c8ebf;fontFamily=Times New Roman;fontSize=16;" vertex="1" parent="1">
          <mxGeometry x="10" y="22.5" width="90" height="115" as="geometry" />
        </mxCell>
        <mxCell id="u-NJwBv3rZono-T8brO3-6" value="运动历史&lt;div&gt;记录页&lt;/div&gt;" style="shape=note;whiteSpace=wrap;html=1;backgroundOutline=1;darkOpacity=0.05;fillColor=#ffe6cc;strokeColor=#d79b00;fontFamily=Times New Roman;fontSize=16;" vertex="1" parent="1">
          <mxGeometry x="140" y="22.5" width="90" height="115" as="geometry" />
        </mxCell>
        <mxCell id="u-NJwBv3rZono-T8brO3-7" value="运动详情页" style="shape=note;whiteSpace=wrap;html=1;backgroundOutline=1;darkOpacity=0.05;fillColor=#ffe6cc;strokeColor=#d79b00;fontFamily=Times New Roman;fontSize=16;" vertex="1" parent="1">
          <mxGeometry x="270" y="22.5" width="90" height="115" as="geometry" />
        </mxCell>
        <mxCell id="u-NJwBv3rZono-T8brO3-8" value="个人中心页" style="shape=note;whiteSpace=wrap;html=1;backgroundOutline=1;darkOpacity=0.05;fillColor=#fff2cc;strokeColor=#d6b656;fontFamily=Times New Roman;fontSize=16;" vertex="1" parent="1">
          <mxGeometry x="400" y="22.5" width="90" height="115" as="geometry" />
        </mxCell>
        <mxCell id="u-NJwBv3rZono-T8brO3-11" value="&lt;font style=&quot;font-size: 25px;&quot;&gt;······&lt;/font&gt;" style="text;html=1;align=center;verticalAlign=middle;whiteSpace=wrap;rounded=0;fontFamily=Times New Roman;" vertex="1" parent="1">
          <mxGeometry x="520" y="70" width="60" height="30" as="geometry" />
        </mxCell>
        <mxCell id="u-NJwBv3rZono-T8brO3-12" value="" style="rounded=1;whiteSpace=wrap;html=1;fillColor=#ffcc99;strokeColor=#36393d;fontFamily=Times New Roman;" vertex="1" parent="1">
          <mxGeometry x="-180" y="250" width="810" height="280" as="geometry" />
        </mxCell>
        <mxCell id="u-NJwBv3rZono-T8brO3-14" value="业务逻辑层" style="text;html=1;align=center;verticalAlign=middle;whiteSpace=wrap;rounded=0;fontSize=26;fontFamily=Times New Roman;" vertex="1" parent="1">
          <mxGeometry x="-90" y="267.9" width="140" height="30" as="geometry" />
        </mxCell>
        <mxCell id="u-NJwBv3rZono-T8brO3-25" value="" style="html=1;shadow=0;dashed=0;align=center;verticalAlign=middle;shape=mxgraph.arrows2.twoWayArrow;dy=0.6;dx=35;rotation=90;fillColor=#f5f5f5;strokeColor=#666666;fontColor=#333333;" vertex="1" parent="1">
          <mxGeometry x="168.13" y="195.38" width="123.75" height="42.75" as="geometry" />
        </mxCell>
        <mxCell id="u-NJwBv3rZono-T8brO3-31" value="" style="group" vertex="1" connectable="0" parent="1">
          <mxGeometry x="60" y="320" width="550" height="180" as="geometry" />
        </mxCell>
        <mxCell id="u-NJwBv3rZono-T8brO3-47" value="" style="shape=card;whiteSpace=wrap;html=1;fillColor=#f9f7ed;strokeColor=#36393d;fontFamily=Times New Roman;" vertex="1" parent="u-NJwBv3rZono-T8brO3-31">
          <mxGeometry x="347.9591836734694" y="-30" width="179.59183673469389" height="100" as="geometry" />
        </mxCell>
        <mxCell id="u-NJwBv3rZono-T8brO3-32" value="" style="rounded=1;whiteSpace=wrap;html=1;shadow=0;glass=0;" vertex="1" parent="u-NJwBv3rZono-T8brO3-31">
          <mxGeometry width="550.0000000000001" height="180" as="geometry" />
        </mxCell>
        <mxCell id="u-NJwBv3rZono-T8brO3-48" value="&lt;font style=&quot;font-size: 18px;&quot;&gt;&lt;b&gt;WebView&lt;/b&gt;&lt;/font&gt;" style="text;html=1;align=center;verticalAlign=middle;whiteSpace=wrap;rounded=0;fontFamily=Times New Roman;" vertex="1" parent="u-NJwBv3rZono-T8brO3-31">
          <mxGeometry x="392.85714285714283" y="-30" width="112.24489795918366" height="30" as="geometry" />
        </mxCell>
        <mxCell id="u-NJwBv3rZono-T8brO3-51" value="" style="html=1;shadow=0;dashed=0;align=center;verticalAlign=middle;shape=mxgraph.arrows2.twoWayArrow;dy=0.6;dx=35;rotation=0;fillColor=#f5f5f5;strokeColor=#666666;fontColor=#333333;" vertex="1" parent="u-NJwBv3rZono-T8brO3-31">
          <mxGeometry x="199.99530612244897" y="34.32" width="134.69387755102042" height="31.37" as="geometry" />
        </mxCell>
        <mxCell id="u-NJwBv3rZono-T8brO3-52" value="" style="html=1;shadow=0;dashed=0;align=center;verticalAlign=middle;shape=mxgraph.arrows2.twoWayArrow;dy=0.6;dx=35;rotation=0;fillColor=#f5f5f5;strokeColor=#666666;fontColor=#333333;" vertex="1" parent="u-NJwBv3rZono-T8brO3-31">
          <mxGeometry x="199.99530612244897" y="114.32" width="134.69387755102042" height="31.37" as="geometry" />
        </mxCell>
        <mxCell id="u-NJwBv3rZono-T8brO3-68" value="" style="group" vertex="1" connectable="0" parent="u-NJwBv3rZono-T8brO3-31">
          <mxGeometry x="347.96346938775514" y="20" width="190.81632653061223" height="60" as="geometry" />
        </mxCell>
        <mxCell id="u-NJwBv3rZono-T8brO3-37" value="&lt;font style=&quot;font-size: 16px;&quot;&gt;&amp;nbsp; &amp;nbsp; &amp;nbsp; &amp;nbsp; 轨道记录服务&lt;/font&gt;" style="rounded=1;whiteSpace=wrap;html=1;fillColor=#f9f7ed;strokeColor=#36393d;" vertex="1" parent="u-NJwBv3rZono-T8brO3-68">
          <mxGeometry width="190.81632653061223" height="60" as="geometry" />
        </mxCell>
        <mxCell id="u-NJwBv3rZono-T8brO3-61" value="" style="shape=image;verticalLabelPosition=bottom;labelBackgroundColor=default;verticalAlign=top;aspect=fixed;imageAspect=0;image=data:image/svg+xml,&lt;svg xmlns=&#39;http://www.w3.org/2000/svg&#39; viewBox=&#39;0 0 24 24&#39;&gt;&lt;path d=&#39;M12 2C8.13 2 5 5.13 5 9c0 5.25 7 13 7 13s7-7.75 7-13c0-3.87-3.13-7-7-7zm0 9.5c-1.38 0-2.5-1.12-2.5-2.5s1.12-2.5 2.5-2.5 2.5 1.12 2.5 2.5-1.12 2.5-2.5 2.5z&#39;/&gt;&lt;/svg&gt;;" vertex="1" parent="u-NJwBv3rZono-T8brO3-68">
          <mxGeometry x="11.224489795918366" y="10" width="40" height="40" as="geometry" />
        </mxCell>
        <mxCell id="u-NJwBv3rZono-T8brO3-70" value="" style="group" vertex="1" connectable="0" parent="u-NJwBv3rZono-T8brO3-31">
          <mxGeometry x="347.96346938775514" y="100" width="190.81632653061223" height="60" as="geometry" />
        </mxCell>
        <mxCell id="u-NJwBv3rZono-T8brO3-38" value="&lt;font style=&quot;font-size: 16px;&quot;&gt;&amp;nbsp; &amp;nbsp; &amp;nbsp; &amp;nbsp; 地图渲染服务&lt;/font&gt;" style="rounded=1;whiteSpace=wrap;html=1;fillColor=#f9f7ed;strokeColor=#36393d;" vertex="1" parent="u-NJwBv3rZono-T8brO3-70">
          <mxGeometry width="190.81632653061223" height="60" as="geometry" />
        </mxCell>
        <mxCell id="u-NJwBv3rZono-T8brO3-63" value="" style="shape=image;verticalLabelPosition=bottom;labelBackgroundColor=default;verticalAlign=top;aspect=fixed;imageAspect=0;image=data:image/svg+xml,&lt;svg xmlns=&#39;http://www.w3.org/2000/svg&#39; viewBox=&#39;0 0 24 24&#39;&gt;&lt;path d=&#39;M20.5 3l-.16.03L15 5.1 9 3 3.36 4.9c-.21.07-.36.25-.36.48V20.5c0 .28.22.5.5.5l.16-.03L9 18.9l6 2.1 5.64-1.9c.21-.07.36-.25.36-.48V3.5c0-.28-.22-.5-.5-.5zM15 19l-6-2.11V5l6 2.11V19z&#39;/&gt;&lt;/svg&gt;;" vertex="1" parent="u-NJwBv3rZono-T8brO3-70">
          <mxGeometry x="11.224489795918366" y="10" width="40" height="40" as="geometry" />
        </mxCell>
        <mxCell id="u-NJwBv3rZono-T8brO3-69" value="" style="group" vertex="1" connectable="0" parent="u-NJwBv3rZono-T8brO3-31">
          <mxGeometry x="10.004693877551034" y="10" width="179.59183673469389" height="160" as="geometry" />
        </mxCell>
        <mxCell id="u-NJwBv3rZono-T8brO3-49" value="&lt;div&gt;&lt;font style=&quot;font-size: 16px;&quot;&gt;&lt;br&gt;&lt;/font&gt;&lt;/div&gt;&lt;font style=&quot;font-size: 16px;&quot;&gt;&lt;div&gt;&lt;font style=&quot;font-size: 16px;&quot;&gt;&lt;br&gt;&lt;/font&gt;&lt;/div&gt;&lt;div&gt;&lt;font style=&quot;font-size: 16px;&quot;&gt;&lt;br&gt;&lt;/font&gt;&lt;/div&gt;&lt;div&gt;&lt;font style=&quot;font-size: 16px;&quot;&gt;&lt;br&gt;&lt;/font&gt;&lt;/div&gt;运动数据处理服务&lt;/font&gt;" style="rounded=1;whiteSpace=wrap;html=1;fillColor=#f9f7ed;strokeColor=#36393d;" vertex="1" parent="u-NJwBv3rZono-T8brO3-69">
          <mxGeometry width="179.59183673469389" height="160" as="geometry" />
        </mxCell>
        <mxCell id="u-NJwBv3rZono-T8brO3-64" value="" style="shape=image;verticalLabelPosition=bottom;labelBackgroundColor=default;verticalAlign=top;aspect=fixed;imageAspect=0;image=data:image/svg+xml,&lt;svg xmlns=&#39;http://www.w3.org/2000/svg&#39; viewBox=&#39;0 0 24 24&#39;&gt;&lt;path d=&#39;M19 3H5c-1.1 0-2 .9-2 2v14c0 1.1.9 2 2 2h14c1.1 0 2-.9 2-2V5c0-1.1-.9-2-2-2zm-5 14H7v-2h7v2zm3-4H7v-2h10v2zm0-4H7V7h10v2z&#39;/&gt;&lt;/svg&gt;;" vertex="1" parent="u-NJwBv3rZono-T8brO3-69">
          <mxGeometry x="50.51020408163265" y="24.32" width="70" height="70" as="geometry" />
        </mxCell>
        <mxCell id="u-NJwBv3rZono-T8brO3-26" value="" style="shape=image;verticalLabelPosition=bottom;labelBackgroundColor=default;verticalAlign=top;aspect=fixed;imageAspect=0;image=data:image/svg+xml,&lt;svg xmlns=&#39;http://www.w3.org/2000/svg&#39; viewBox=&#39;0 0 24 24&#39; fill=&#39;%23689F38&#39;&gt;&lt;path d=&#39;M19.14 12.94c.04-.3.06-.61.06-.94 0-.32-.02-.64-.07-.94l2.03-1.58c.18-.14.23-.41.12-.61l-1.92-3.32c-.12-.22-.37-.29-.59-.22l-2.39.96c-.5-.38-1.03-.7-1.62-.94l-.36-2.54c-.04-.24-.24-.41-.48-.41h-3.84c-.24 0-.43.17-.47.41l-.36 2.54c-.59.24-1.13.57-1.62.94l-2.39-.96c-.22-.08-.47 0-.59.22L2.74 8.87c-.12.21-.08.47.12.61l2.03 1.58c-.05.3-.07.63-.07.94s.02.64.07.94l-2.03 1.58c-.18.14-.23.41-.12.61l1.92 3.32c.12.22.37.29.59.22l2.39-.96c.5.38 1.03.7 1.62.94l.36 2.54c.05.24.24.41.48.41h3.84c.24 0 .44-.17.47-.41l.36-2.54c.59-.24 1.13-.56 1.62-.94l2.39.96c.22.08.47 0 .59-.22l1.92-3.32c.12-.22.07-.47-.12-.61l-2.03-1.58zM12 15.6c-1.98 0-3.6-1.62-3.6-3.6s1.62-3.6 3.6-3.6 3.6 1.62 3.6 3.6-1.62 3.6-3.6 3.6z&#39;/&gt;&lt;/svg&gt;;" vertex="1" parent="1">
          <mxGeometry x="-144.1" y="259.9" width="46" height="46" as="geometry" />
        </mxCell>
        <mxCell id="u-NJwBv3rZono-T8brO3-27" value="&lt;div&gt;&lt;br&gt;&lt;/div&gt;&lt;div&gt;&lt;font style=&quot;font-size: 16px;&quot;&gt;&lt;br&gt;&lt;/font&gt;&lt;/div&gt;&lt;div&gt;&lt;font style=&quot;font-size: 16px;&quot;&gt;&lt;br&gt;&lt;/font&gt;&lt;/div&gt;&lt;div&gt;&lt;font style=&quot;font-size: 16px;&quot;&gt;&lt;br&gt;&lt;/font&gt;&lt;/div&gt;&lt;div&gt;&lt;font style=&quot;font-size: 16px;&quot;&gt;&lt;br&gt;&lt;/font&gt;&lt;/div&gt;&lt;font style=&quot;font-size: 16px;&quot;&gt;用户认证服务&lt;/font&gt;" style="rounded=1;whiteSpace=wrap;html=1;shadow=0;glass=0;fillColor=#f9f7ed;strokeColor=#36393d;" vertex="1" parent="1">
          <mxGeometry x="-150" y="320" width="130" height="180" as="geometry" />
        </mxCell>
        <mxCell id="u-NJwBv3rZono-T8brO3-28" value="" style="shape=image;verticalLabelPosition=bottom;labelBackgroundColor=default;verticalAlign=top;aspect=fixed;imageAspect=0;image=data:image/svg+xml,&lt;svg xmlns=&#39;http://www.w3.org/2000/svg&#39; viewBox=&#39;0 0 24 24&#39; fill=&#39;%23F57C00&#39;&gt;&lt;path d=&#39;M18 8h-1V6c0-2.76-2.24-5-5-5S7 3.24 7 6v2H6c-1.1 0-2 .9-2 2v10c0 1.1.9 2 2 2h12c1.1 0 2-.9 2-2V10c0-1.1-.9-2-2-2zm-6 9c-1.1 0-2-.9-2-2s.9-2 2-2 2 .9 2 2-.9 2-2 2zm3.1-9H8.9V6c0-1.71 1.39-3.1 3.1-3.1 1.71 0 3.1 1.39 3.1 3.1v2z&#39;/&gt;&lt;/svg&gt;;" vertex="1" parent="1">
          <mxGeometry x="-115" y="360" width="60" height="60" as="geometry" />
        </mxCell>
        <mxCell id="u-NJwBv3rZono-T8brO3-71" value="" style="html=1;shadow=0;dashed=0;align=center;verticalAlign=middle;shape=mxgraph.arrows2.twoWayArrow;dy=0.6;dx=35;rotation=0;fillColor=#f5f5f5;strokeColor=#666666;fontColor=#333333;" vertex="1" parent="1">
          <mxGeometry x="-55" y="370" width="150" height="80" as="geometry" />
        </mxCell>
        <mxCell id="u-NJwBv3rZono-T8brO3-72" value="" style="rounded=1;whiteSpace=wrap;html=1;fillColor=#fff2cc;strokeColor=#d6b656;fontFamily=Times New Roman;" vertex="1" parent="1">
          <mxGeometry x="-180" y="610" width="810" height="280" as="geometry" />
        </mxCell>
        <mxCell id="u-NJwBv3rZono-T8brO3-73" value="数据层" style="text;html=1;align=center;verticalAlign=middle;whiteSpace=wrap;rounded=0;fontSize=26;fontFamily=Times New Roman;" vertex="1" parent="1">
          <mxGeometry x="-90" y="627.9" width="90" height="30" as="geometry" />
        </mxCell>
        <mxCell id="u-NJwBv3rZono-T8brO3-75" value="" style="html=1;shadow=0;dashed=0;align=center;verticalAlign=middle;shape=mxgraph.arrows2.twoWayArrow;dy=0.6;dx=35;rotation=90;fillColor=#f5f5f5;strokeColor=#666666;fontColor=#333333;" vertex="1" parent="1">
          <mxGeometry x="168.13" y="555.38" width="123.75" height="42.75" as="geometry" />
        </mxCell>
        <mxCell id="u-NJwBv3rZono-T8brO3-76" value="" style="shape=image;verticalLabelPosition=bottom;labelBackgroundColor=default;verticalAlign=top;aspect=fixed;imageAspect=0;image=data:image/svg+xml,&lt;svg xmlns=&#39;http://www.w3.org/2000/svg&#39; viewBox=&#39;0 0 24 24&#39; &gt;&lt;path d=&#39;M20 13H4c-.55 0-1 .45-1 1v6c0 .55.45 1 1 1h16c.55 0 1-.45 1-1v-6c0-.55-.45-1-1-1zM7 19c-1.1 0-2-.9-2-2s.9-2 2-2 2 .9 2 2-.9 2-2 2zM20 3H4c-.55 0-1 .45-1 1v6c0 .55.45 1 1 1h16c.55 0 1-.45 1-1V4c0-.55-.45-1-1-1zM7 9c-1.1 0-2-.9-2-2s.9-2 2-2 2 .9 2 2-.9 2-2 2z&#39;/&gt;&lt;/svg&gt;;" vertex="1" parent="1">
          <mxGeometry x="-147.45000000000002" y="618.23" width="49.35" height="49.35" as="geometry" />
        </mxCell>
        <mxCell id="u-NJwBv3rZono-T8brO3-77" value="" style="html=1;shadow=0;dashed=0;align=center;verticalAlign=middle;shape=mxgraph.arrows2.twoWayArrow;dy=0.6;dx=35;rotation=90;fillColor=#f5f5f5;strokeColor=#666666;fontColor=#333333;" vertex="1" parent="1">
          <mxGeometry x="-697.5" y="403.8" width="947.5" height="42.75" as="geometry" />
        </mxCell>
        <mxCell id="u-NJwBv3rZono-T8brO3-81" value="&lt;font style=&quot;font-size: 16px;&quot;&gt;AGConnect&amp;nbsp;&lt;/font&gt;&lt;div&gt;&lt;font style=&quot;font-size: 16px;&quot;&gt;Auth&lt;/font&gt;&lt;/div&gt;" style="shape=datastore;whiteSpace=wrap;html=1;" vertex="1" parent="1">
          <mxGeometry x="-135" y="680" width="120" height="191.77" as="geometry" />
        </mxCell>
        <mxCell id="u-NJwBv3rZono-T8brO3-82" value="&lt;font style=&quot;font-size: 16px;&quot;&gt;AGConnect&amp;nbsp;&lt;/font&gt;&lt;div&gt;&lt;span style=&quot;font-size: 16px;&quot;&gt;Cloud DB&lt;/span&gt;&lt;/div&gt;" style="shape=datastore;whiteSpace=wrap;html=1;" vertex="1" parent="1">
          <mxGeometry x="26.25" y="680" width="123.75" height="191.77" as="geometry" />
        </mxCell>
        <mxCell id="u-NJwBv3rZono-T8brO3-83" value="&lt;font style=&quot;font-size: 16px;&quot;&gt;AGConnect&amp;nbsp;&lt;/font&gt;&lt;div&gt;&lt;span style=&quot;font-size: 16px;&quot;&gt;Cloud Storage&lt;/span&gt;&lt;/div&gt;" style="shape=datastore;whiteSpace=wrap;html=1;" vertex="1" parent="1">
          <mxGeometry x="200" y="680" width="120" height="191.77" as="geometry" />
        </mxCell>
        <mxCell id="u-NJwBv3rZono-T8brO3-85" value="&lt;span style=&quot;font-size: 16px;&quot;&gt;本地存储&lt;/span&gt;" style="shape=datastore;whiteSpace=wrap;html=1;" vertex="1" parent="1">
          <mxGeometry x="440" y="680" width="120" height="191.77" as="geometry" />
        </mxCell>
        <mxCell id="u-NJwBv3rZono-T8brO3-86" value="&lt;div&gt;&lt;br&gt;&lt;/div&gt;&lt;div&gt;Local&lt;/div&gt;" style="shape=actor;whiteSpace=wrap;html=1;fillColor=#f8cecc;strokeColor=#b85450;" vertex="1" parent="1">
          <mxGeometry x="525" y="690" width="50" height="60" as="geometry" />
        </mxCell>
        <mxCell id="u-NJwBv3rZono-T8brO3-87" value="Cloud" style="ellipse;shape=cloud;whiteSpace=wrap;html=1;align=center;fillColor=#e1d5e7;strokeColor=#9673a6;" vertex="1" parent="1">
          <mxGeometry x="250" y="690" width="100" height="60" as="geometry" />
        </mxCell>
        <mxCell id="u-NJwBv3rZono-T8brO3-88" value="Cloud" style="ellipse;shape=cloud;whiteSpace=wrap;html=1;align=center;fillColor=#e1d5e7;strokeColor=#9673a6;" vertex="1" parent="1">
          <mxGeometry x="80" y="690" width="100" height="60" as="geometry" />
        </mxCell>
        <mxCell id="u-NJwBv3rZono-T8brO3-105" value="" style="rounded=1;whiteSpace=wrap;html=1;fillColor=none;dashed=1;strokeColor=#b85450;strokeWidth=3;" vertex="1" parent="1">
          <mxGeometry x="-150" y="670" width="500" height="210" as="geometry" />
        </mxCell>
        <mxCell id="u-NJwBv3rZono-T8brO3-89" value="Cloud" style="ellipse;shape=cloud;whiteSpace=wrap;html=1;align=center;fillColor=#e1d5e7;strokeColor=#9673a6;" vertex="1" parent="1">
          <mxGeometry x="-90" y="690" width="100" height="60" as="geometry" />
        </mxCell>
        <mxCell id="u-NJwBv3rZono-T8brO3-106" value="" style="html=1;shadow=0;dashed=0;align=center;verticalAlign=middle;shape=mxgraph.arrows2.twoWayArrow;dy=0.6;dx=35;rotation=0;fillColor=#f5f5f5;strokeColor=#666666;fontColor=#333333;" vertex="1" parent="1">
          <mxGeometry x="310" y="735.89" width="150" height="80" as="geometry" />
        </mxCell>
        <mxCell id="u-NJwBv3rZono-T8brO3-109" value="" style="shape=image;verticalLabelPosition=bottom;labelBackgroundColor=default;verticalAlign=top;aspect=fixed;imageAspect=0;image=https://developer.huawei.com/consumer/cn/service/josp/agc/static/img/logo.dd58f71c.png;" vertex="1" parent="1">
          <mxGeometry x="90" y="627.9" width="270" height="45.24" as="geometry" />
        </mxCell>
        <mxCell id="u-NJwBv3rZono-T8brO3-111" value="" style="shape=image;verticalLabelPosition=bottom;labelBackgroundColor=default;verticalAlign=top;aspect=fixed;imageAspect=0;image=data:image/svg+xml,PHN2ZyB4bWxuczp4bGluaz0iaHR0cDovL3d3dy53My5vcmcvMTk5OS94bGluayIgeG1sbnM9Imh0dHA6Ly93d3cudzMub3JnLzIwMDAvc3ZnIiB4bWw6c3BhY2U9InByZXNlcnZlIiBzdHlsZT0iZW5hYmxlLWJhY2tncm91bmQ6bmV3IDAgMCAxMDE2LjMyMDk4MzkgMTg3LjYxMTk5OTU7IiB2aWV3Qm94PSIwIDAgMTAxNi4zMjA5ODM5IDE4Ny42MTE5OTk1IiBoZWlnaHQ9IjE4Ny42MTE5OTk1cHgiIHdpZHRoPSIxMDE2LjMyMDk4MzlweCIgeT0iMHB4IiB4PSIwcHgiIGlkPSLlnJblsaRfMSIgdmVyc2lvbj0iMS4xIj4mI3hhOzxzdHlsZSB0eXBlPSJ0ZXh0L2NzcyI+JiN4YTsJLnN0MHtmaWxsOiMxRjY5RkY7fSYjeGE7CS5zdDF7ZmlsbC1ydWxlOmV2ZW5vZGQ7Y2xpcC1ydWxlOmV2ZW5vZGQ7fSYjeGE7PC9zdHlsZT4mI3hhOzxtZXRhZGF0YT4mI3hhOwkmI3hhOwkJJiN4YTsJCSYjeGE7CQkJJiN4YTsJJiN4YTs8L21ldGFkYXRhPiYjeGE7PGcgdHJhbnNmb3JtPSJ0cmFuc2xhdGUoMC4xNCAtMS45ODIpIiBpZD0i57uEXzM4ODM0Ij4mI3hhOwk8cmVjdCBoZWlnaHQ9IjE4LjcyMTAwMDciIHdpZHRoPSI5NS42NzYwMDI1IiBjbGFzcz0ic3QwIiB5PSIxNjYuOTI5MDAwOSIgeD0iNzkxLjc1NTAwNDkiIGlkPSLnn6nlvaJfMTI3NzAiLz4mI3hhOwk8ZyB0cmFuc2Zvcm09InRyYW5zbGF0ZSgtMC4xNCAwLjk4MikiIGlkPSLnu4RfMzg4MzMiPiYjeGE7CQk8ZyB0cmFuc2Zvcm09InRyYW5zbGF0ZSgwIDEuMDE4KSIgaWQ9Iue7hF8zODgzMiI+JiN4YTsJCQk8cGF0aCBkPSJNOTk0LjExMTA4NCwxMzUuMDU1OTk5OCYjMTA7JiM5OyYjOTsmIzk7JiM5O2MxMy44MDU0MTk5LTUuODc0MDg0NSwyMi42MTE1NzIzLTE5LjU5NjQ1MDgsMjIuMTk5OTUxMi0zNC41OTQwMDE4YzAtMTguNjIzMzM2OC0xMS4yNzkwNTI3LTMxLjE0MTMyNjktMzMuODM2OTE0MS0zNy41NTQwMDQ3JiMxMDsmIzk7JiM5OyYjOTsmIzk7bC0xOC44NjMwMzcxLTUuNTQ2MDAxNGMtNy4yNzA3NTItMi4wOTczMzItMTIuNjAyMDUwOC00LjcxNzk5ODUtMTUuOTkzODk2NS03Ljg2MTk5OTUmIzEwOyYjOTsmIzk7JiM5OyYjOTtjLTMuMjk3MTE5MS0yLjkzMDkyMzUtNS4xNTMzMjAzLTcuMTUzMDgzOC01LjA4Mzk4NDQtMTEuNTYzOTk5MiYjMTA7JiM5OyYjOTsmIzk7JiM5O2MtMC4wMDAyNDQxLTUuNjcyNjY0NiwyLjQzMzM0OTYtMTAuMzg5OTk3NSw3LjMwMDA0ODgtMTQuMTUxOTk4NXMxMS01LjY0MzY2NzIsMTguMzk5OTAyMy01LjY0NTAwMDUmIzEwOyYjOTsmIzk7JiM5OyYjOTtjNi4zMDQ5MzE2LTAuMDk4NzE0OCwxMi41MDI2ODU1LDEuNjM2MjQ5NSwxNy44NDAwODc5LDQuOTkzOTk5NWM0LjU4Mzk4NDQsMi44NjI5NTUxLDguMzM5ODQzOCw2Ljg3NDU5NTYsMTAuODk1MDE5NSwxMS42MzY5OTkxJiMxMDsmIzk7JiM5OyYjOTsmIzk7YzAuMTY0MDYyNSwwLjI5OTk5OTIsMC40Njk3MjY2LDAuODUxNjY1NSwwLjkxNjk5MjIsMS42NTQ5OTg4YzAuNzY3MzM0LTAuNDc3MzMzMSwxLjI5NzYwNzQtMC44MDUwMDAzLDEuNTkxMDY0NS0wLjk4MzAwMTcmIzEwOyYjOTsmIzk7JiM5OyYjOTtsMTMuNDA2MDA1OS04LjEzMzk5N2MwLjI0MTk0MzQtMC4xNDczMzUxLDAuNjgyODYxMy0wLjQ0NTAwMTYsMS4zMjI5OTgtMC44OTI5OTk2JiMxMDsmIzk7JiM5OyYjOTsmIzk7Yy0wLjI2NjYwMTYtMC42NTEzMzI5LTAuNDc0MzY1Mi0xLjEyNjY2NTEtMC42MjMwNDY5LTEuNDI2MDAwNiYjMTA7JiM5OyYjOTsmIzk7JiM5O2MtMy43Mzg1MjU0LTcuNTcwMzg2OS05LjY4NDgxNDUtMTMuODI5MTE1OS0xNy4wNTM5NTUxLTE3Ljk1MDAwMDgmIzEwOyYjOTsmIzk7JiM5OyYjOTtjLTguMTQwMTM2Ny00LjY4NzMzMjItMTcuNTcyNzUzOS03LjAzMDk5ODItMjguMjk3MzYzMy03LjAzMDk5ODImIzEwOyYjOTsmIzk7JiM5OyYjOTtjLTguMzAzNzEwOS0wLjE0MTkxODMtMTYuNTM4MzMwMSwxLjUzMDMzMzYtMjQuMTI4OTA2Myw0LjkwMDAwMDEmIzEwOyYjOTsmIzk7JiM5OyYjOTtjLTYuNzU3MDgwMSwyLjk4NzI4NDctMTIuNTI3ODMyLDcuODMwOTQwMi0xNi42NDExMTMzLDEzLjk2ODAwMDQmIzEwOyYjOTsmIzk7JiM5OyYjOTtjLTQuMDM2ODY1Miw2LjE0NzIzMDEtNi4xMzA2MTUyLDEzLjM2NjgzMDgtNi4wMDkwMzMyLDIwLjcxOTk5NTVjMCwxOC4yNTMzMzAyLDExLjAzMzIwMzEsMzAuNjQ3OTk4OCwzMy4xMDAwOTc3LDM3LjE4NDAwMTkmIzEwOyYjOTsmIzk7JiM5OyYjOTtsMjAuMzM5MTExMyw1LjkyMDk5NzZjNi45MDQwNTI3LDIuMDk2NjY0NCwxMi4wMjA3NTIsNC43MTczMjMzLDE1LjM1MDA5NzcsNy44NjE5OTk1JiMxMDsmIzk7JiM5OyYjOTsmIzk7YzMuMjQ1MzYxMywyLjk1OTI3NDMsNS4wNjI1LDcuMTcwNTYyNyw0Ljk4OTAxMzcsMTEuNTYxOTk2NWMwLjA4MzAwNzgsNS42NDA3OTI4LTIuNjU1NzYxNywxMC45NTA2MzAyLTcuMzAwMDQ4OCwxNC4xNTI5OTk5JiMxMDsmIzk7JiM5OyYjOTsmIzk7Yy00Ljg3NDc1NTksMy42MzgwMDA1LTExLjEzMTU5MTgsNS40NTcwMDA3LTE4Ljc3MDAxOTUsNS40NTcwMDA3Yy05LjAzMTI1LDAuMDA2MDY1NC0xNy44MzM5ODQ0LTIuODM5MTQxOC0yNS4xNTMwNzYyLTguMTI5OTk3MyYjMTA7JiM5OyYjOTsmIzk7JiM5O2MtMy4xMTU5NjY4LTIuMTU1MDQ0Ni01LjY1ODIwMzEtNS4wMzg2Mi03LjQwNjAwNTktOC40MDAwMDE1Yy0wLjI0NTExNzItMC40ODIwMDIzLTAuNzU0NjM4Ny0xLjQ0ODY2OTQtMS41MjgwNzYyLTIuOTAwMDAxNSYjMTA7JiM5OyYjOTsmIzk7JiM5O2MtMS4zMDM5NTUxLDAuNjc4NjY1Mi0yLjI0NjMzNzksMS4xNzg2NjUyLTIuODI2OTA0MywxLjVsLTEzLjAxMTk2MjksNy4xMzk5OTk0JiMxMDsmIzk7JiM5OyYjOTsmIzk7Yy0wLjIzNzc5MywwLjEzMzMzMTMtMC43MTIxNTgyLDAuNDE1NjY0Ny0xLjQyMjExOTEsMC44NDcwMDAxYzAuMjc2NjExMywwLjY3MjAwNDcsMC40OTM4OTY1LDEuMTY5OTk4MiwwLjY1MDg3ODksMS40OTQwMDMzJiMxMDsmIzk7JiM5OyYjOTsmIzk7YzMuOTA0Nzg1Miw4LjAzMDY2MjUsMTAuMjk0Njc3NywxNC4zOTczMzEyLDE5LjE3MDg5ODQsMTkuMDk5OTk4NSYjMTA7JiM5OyYjOTsmIzk7JiM5O2M5LjQzMTE1MjMsNC45OTQ2NzQ3LDIwLjE4Njc2NzYsNy40OTE2Njg3LDMyLjI2NjExMzMsNy40OTA5OTczYzguMzI0OTUxMiwwLjE2MTc0MzIsMTYuNTg2NjY5OS0xLjQ3OTA5NTUsMjQuMjE4MDE3Ni00LjgwOTk5NzYmIzEwOyYjOTsmIzk7JiM5OyYjOTtMOTk0LjExMTA4NCwxMzUuMDU1OTk5OHoiIGNsYXNzPSJzdDEiIGlkPSLot6/lvoRfNDkzMyIvPiYjeGE7CQkJPHBhdGggZD0iTTc1NC43ODc4NDE4LDM5LjM1OTk5M2wtMy42OTk5NTEyLDAuMDI3OTk5OUw3MzIuOTg3NzkzLDM5LjM4Mjk4OGgtMC41NTgxMDU1bC0wLjYyODkwNjMsMS42MjMwMDExJiMxMDsmIzk7JiM5OyYjOTsmIzk7bC0yNS4zOTk5MDIzLDcwLjc0Mjk5NjJsLTI1LjM0NjkyMzgtNzAuNjA3MDA5OWMtMC4wNzEwNDQ5LTAuMTk5OTk2OS0wLjE5OTk1MTItMC41ODcwMDU2LTAuMzcxMDkzOC0xLjE1Mjk5OTkmIzEwOyYjOTsmIzk7JiM5OyYjOTtsLTAuMTc3MDAyLTAuNTc2MDA0bC0xLjc1MzkwNjMtMC4wMjA5OTYxaC0yMS45Mzc5ODgzbDEuMjA5OTYwOSwyLjk0NTk5OTEmIzEwOyYjOTsmIzk7JiM5OyYjOTtjMC4xMTkzODQ4LDAuMjk2NjYxNCwwLjIwOTk2MDksMC41MjQzMzc4LDAuMjcxOTcyNywwLjY4Mjk5ODdsMzcuMDcyMDIxNSw5Ni40NzAwMzk0bC0xOC4wMTYxMTMzLDQyLjMzNDk5MTUmIzEwOyYjOTsmIzk7JiM5OyYjOTtjLTAuMTkzMTE1MiwwLjQ1MTk5NTgtMC41NjkwOTE4LDEuMjkwOTg1MS0xLjEyNzkyOTcsMi41MTE5OTM0bC0xLjUxMjkzOTUsMy4yMTcwMTA1bDQuMTk1MDY4NCwwLjAzOTAwMTVoMTguMjgxMDA1OSYjMTA7JiM5OyYjOTsmIzk7JiM5O2w1Ni44ODU5ODYzLTE0Ni4zODEwMTJsMC43MDYwNTQ3LTEuODU4OTkzNUw3NTQuNzg3ODQxOCwzOS4zNTk5OTN6IiBpZD0i6Lev5b6EXzQ5MzQiLz4mI3hhOwkJCTxwYXRoIGQ9Ik02MTIuODQ4MTQ0NSwzOC4zNDM5OTQxYy02LjY5MTQwNjMtMC4xMTg0NjkyLTEzLjI5Nzg1MTYsMS41MTA0ODI4LTE5LjE2Njk5MjIsNC43MjU5OTc5JiMxMDsmIzk7JiM5OyYjOTsmIzk7bC0wLjY5OTk1MTIsMC4zOTk5OTM5Yy00LjI0NTExNzIsMi40Njk1NzQtNy44NTQ3MzYzLDUuODk2NjIxNy0xMC41NDEwMTU2LDEwLjAwNzk5NTZsLTAuMjg3MTA5NCwwLjQ1MTk5NThsLTEuMzM2OTE0MS0xMyYjMTA7JiM5OyYjOTsmIzk7JiM5O0g1NjMuMDMxMjV2OTguMzM1MDA2N2gyMS40MjA4OTg0VjgyLjk3OTk5NTdjMC03LjQ0MDk5NDMsMi4xNDU5OTYxLTEzLjM5OTk5MzksNi40MzE4ODQ4LTE3LjkyMzk5NiYjMTA7JiM5OyYjOTsmIzk7JiM5O3M5Ljc5Mzk0NTMtNi43NzAwMDQzLDE2LjYwMDA5NzctNi43NzAwMDQzYzYuMzA2ODg0OCwwLDExLjI5MDAzOTEsMi4wNjM5OTU0LDE1LjAxMzkxNiw2LjE5OTk5NjkmIzEwOyYjOTsmIzk7JiM5OyYjOTtjMy43MzcwNjA1LDQuMTUyOTk5OSw1LjYxMzAzNzEsOS43NSw1LjYxMzAzNzEsMTYuODMzMDA3OHY1Ny45NDY5OTFoMjEuMjM3MDYwNVY3Ny4yNDg5OTI5JiMxMDsmIzk7JiM5OyYjOTsmIzk7YzAuMTM2OTYyOS03LjA1Njg2OTUtMS40NDkyMTg4LTE0LjA0MDY3OTktNC42MjEwOTM4LTIwLjM0NjAwODMmIzEwOyYjOTsmIzk7JiM5OyYjOTtjLTIuODkwNjI1LTUuNzE3MTkzNi03LjM2MjU0ODgtMTAuNDgzODQwOS0xMi44ODQwMzMyLTEzLjczMzAwMTdjLTUuNzgxOTgyNC0zLjI5MzU5NDQtMTIuMzQ3MTY4LTQuOTYxNTMyNi0xOS00LjgyNjk5NTgmIzEwOyYjOTsmIzk7JiM5OyYjOTtMNjEyLjg0ODE0NDUsMzguMzQzOTk0MXoiIGlkPSLot6/lvoRfNDkzNSIvPiYjeGE7CQkJPHBhdGggZD0iTTUwMS43MTgwMTc2LDM5LjAxNTk5MTJjOC42NTYyNS0wLjE2NTk4NTEsMTcuMTk0NDU4LDIuMDI2MzA2MiwyNC42OTk5NTEyLDYuMzQxOTk1MiYjMTA7JiM5OyYjOTsmIzk7JiM5O2M3LjE5OTU4NSw0LjI1Njc5MDIsMTMuMDM4MjA4LDEwLjQ3NTU4NTksMTYuODMzMDA3OCwxNy45MjkwMDA5YzQuMTQxNjAxNiw4LjE2NjkxNTksNi4yMTgyNjE3LDE3LjIyNDUzMzEsNi4wNDc5NzM2LDI2LjM4MDAwNDkmIzEwOyYjOTsmIzk7JiM5OyYjOTtjMCw5Ljg3Nzk5MDctMi4wMTU4NjkxLDE4LjY0MjMzNC02LjA0Nzk3MzYsMjYuMjkyOTk5M2MtMy44MTU1NTE4LDcuNDE0MzgyOS05LjY1MTM2NzIsMTMuNTk3NjI1Ny0xNi44MzMwMDc4LDE3LjgzNTAwNjcmIzEwOyYjOTsmIzk7JiM5OyYjOTtjLTcuNTA1MzcxMSw0LjMxNjA3MDYtMTYuMDQzNzAxMiw2LjUwODM5MjMtMjQuNjk5OTUxMiw2LjM0MjAxMDUmIzEwOyYjOTsmIzk7JiM5OyYjOTtjLTguNjgyMzczLDAuMTU4NTA4My0xNy4yNDYyMTU4LTIuMDMyMDEyOS0yNC43ODYwMTA3LTYuMzM5OTk2MyYjMTA7JiM5OyYjOTsmIzk7JiM5O2MtNy4yMjExOTE0LTQuMjE4MDkzOS0xMy4wOTA4MjAzLTEwLjQwNjc4NDEtMTYuOTIxMDIwNS0xNy44NDEwMDM0JiMxMDsmIzk7JiM5OyYjOTsmIzk7Yy00LjAzNTg4ODctNy42NDI2Njk3LTYuMDUyMDAyLTE2LjQwNjk5NzctNi4wNDc5NzM2LTI2LjI5Mjk5OTNjMC0xMCwyLjAxNTk5MTItMTguODI0NjYxMyw2LjA0Nzk3MzYtMjYuNDczOTk5JiMxMDsmIzk7JiM5OyYjOTsmIzk7YzMuODMwMjAwMi03LjQzNDIxOTQsOS42OTk4MjkxLTEzLjYyMjkwOTUsMTYuOTIxMDIwNS0xNy44NDEwMDM0JiMxMDsmIzk7JiM5OyYjOTsmIzk7YzcuNTQwMDM5MS00LjMwNzQ2NDYsMTYuMTAzNzU5OC02LjQ5Nzk3MDYsMjQuNzg2MDEwNy02LjMzOTk5NjNWMzkuMDE1OTkxMnogTTUwMS43MTgwMTc2LDU3Ljk1Njk4NTUmIzEwOyYjOTsmIzk7JiM5OyYjOTtjLTcuOTUzMDAyOSwwLTE0LjMxOTk0NjMsMi44Nzg5OTc4LTE5LjE2MTk4NzMsOC42NTQwMDdjLTQuODY2Njk5Miw1LjgwNTMyODQtNy4zMDI5Nzg1LDEzLjQ5MDY2MTYtNy4zMDg5NiwyMy4wNTU5OTk4JiMxMDsmIzk7JiM5OyYjOTsmIzk7YzAsOS40NTY2NjUsMi40MzY0MDE0LDE3LjA4MTY2NSw3LjMwODk2LDIyLjg3NWM0LjgzODk4OTMsNS43NzYwMDEsMTEuMjA4MDA3OCw4LjY1NDAwNywxOS4xNjE5ODczLDguNjU0MDA3JiMxMDsmIzk7JiM5OyYjOTsmIzk7YzcuMzMwMzIyMywwLjIyODY2ODIsMTQuMzQ4NzU0OS0yLjk3MDczMzYsMTguOTg0MDA4OC04LjY1NDAwN2M0Ljg2NjY5OTItNS44MDg2Nyw3LjMwMjczNDQtMTMuNDMzNjcsNy4zMDc5ODM0LTIyLjg3NSYjMTA7JiM5OyYjOTsmIzk7JiM5O2MtMC4wMDAxMjIxLTkuNTc1MzMyNi0yLjQzNTkxMzEtMTcuMjYwNjgxMi03LjMwNzk4MzQtMjMuMDU1OTk5OCYjMTA7JiM5OyYjOTsmIzk7JiM5O0M1MTYuMDY2NzcyNSw2MC45Mjc3MTkxLDUwOS4wNDgzMzk4LDU3LjcyODMxNzMsNTAxLjcxODAxNzYsNTcuOTU2OTg1NXoiIGlkPSLot6/lvoRfNDkzNiIvPiYjeGE7CQkJPHBhdGggZD0iTTQwOC4xNzU5NjQ0LDM4LjM1Mjk5NjhjNi4xNzI0ODU0LDAuMDE3MTgxNCwxMi4yMjMxNDQ1LDEuNzE4NjU4NCwxNy41LDQuOTIxMDA1MiYjMTA7JiM5OyYjOTsmIzk7JiM5O2M1LjM0ODk5OSwzLjMzNDMyMDEsOS42MjYyMjA3LDguMTM2NDc0NiwxMi4zMjIwMjE1LDEzLjgzMzk5OTZjMi44NDI2NTE0LDUuOTkwMjAzOSw0LjMyMDkyMjksMTIuNTM2NTE0Myw0LjMyODAwMjksMTkuMTY2OTkyMiYjMTA7JiM5OyYjOTsmIzk7JiM5O2wwLjAwODA1NjYsMC45NzU5OTc5djYyLjAxNjAwNjVoLTIxLjIzNDAwODhWNzkuNDY2OTk1MmMwLTYuNDY2OTk1Mi0xLjY5Mjk5MzItMTEuNjAwMDA2MS01LjA2NDk0MTQtMTUuNDQ5OTk2OSYjMTA7JiM5OyYjOTsmIzk7JiM5O2MtMy4zNTIwNTA4LTMuODIwMDA3My03LjkwNTAyOTMtNS43Mjk5OTU3LTEzLjcwODAwNzgtNS43Mjk5OTU3Yy02LjMxMzk2NDgsMC0xMS4zOTAwMTQ2LDIuMDY3MDAxMy0xNS4zMDAwNDg4LDYuMjEyOTk3NCYjMTA7JiM5OyYjOTsmIzk7JiM5O2MtMy43NzY5Nzc1LDQuMDA1OTk2Ny01LjczNTk2MTksOS4yMzE5OTQ2LTUuODcwOTcxNywxNS43MjM5OTlsLTAuMDA4MDU2NiwwLjcyNTk5Nzl2NTguMzE0OTg3MmgtMjEuMjM2OTM4NVY3OS40NjQ5ODExJiMxMDsmIzk7JiM5OyYjOTsmIzk7YzAtNi40NjQ5OTYzLTEuNzIyMDQ1OS0xMS42MDAwMDYxLTUuMTUyOTU0MS0xNS40NDQ5OTIxYy0zLjQxNzk2ODgtMy44MjQwMDUxLTgtNS43MzUwMDA2LTEzLjgwODk2LTUuNzM1MDAwNiYjMTA7JiM5OyYjOTsmIzk7JiM5O2MtNS42OTg5NzQ2LTAuMjAxMjQ4Mi0xMS4yMDgyNTIsMi4wNjI3NTk0LTE1LjExOTAxODYsNi4yMTI5OTc0Yy0zLjc3Njk3NzUsNC4wMDU5OTY3LTUuNzM1OTYxOSw5LjIzMTk5NDYtNS44NzA5NzE3LDE1LjcyMzk5OSYjMTA7JiM5OyYjOTsmIzk7JiM5O2wtMC4wMDgwNTY2LDAuNzI1OTk3OVYxMzkuMjYyOTdoLTIxLjQyMjk3MzZWNDAuOTMxOTkxNmgxOC4wMjE4NTA2bDEuMTI2OTUzMSwxMi43MjM5OTlsMC4yNTUwMDQ5LTAuMzk5OTkzOSYjMTA7JiM5OyYjOTsmIzk7JiM5O2MyLjU0NjE0MjYtMy45NjM0NTUyLDUuOTU4MDA3OC03LjI5Nzc2LDkuOTc5MDAzOS05Ljc1MTk5ODlsMC42OTI5OTMyLTAuNDE3OTk5MyYjMTA7JiM5OyYjOTsmIzk7JiM5O2M1LjQyMjg1MTYtMy4xNzE2NzY2LDExLjYwNjA3OTEtNC44MDkwODIsMTcuODg3OTM5NS00LjczNjk5OTVjNi4zMTgyMzczLTAuMTAyNjc2NCwxMi41MzMyMDMxLDEuNjA5MDA4OCwxNy45MDc5NTksNC45MzIwMDY4JiMxMDsmIzk7JiM5OyYjOTsmIzk7YzQuODEwMzAyNywzLjAyNTI2ODYsOC43OTM3MDEyLDcuMTk4MjU3NCwxMS41OTIwNDEsMTIuMTQzOTk3MmwwLjA3Mjk5OCwwLjEzMDAwNDkmIzEwOyYjOTsmIzk7JiM5OyYjOTtjMi43NDAzNTY0LTQuOTIyOTEyNiw2Ljc0MTIxMDktOS4wMjgwMzA0LDExLjU5MjA0MS0xMS44OTM5OTcybDAuNjgyMDA2OC0wLjM5OTk5MzkmIzEwOyYjOTsmIzk7JiM5OyYjOTtjNS41MjcyMjE3LTMuMTQ4MjA4NiwxMS43NjUzODA5LTQuODM2NjI0MSwxOC4xMjU5NzY2LTQuOTA2MDA1OWwwLjg2MjA2MDUtMC4wMDkwMDI3bDAuODYyMDYwNSwwLjAwOTAwMjcmIzEwOyYjOTsmIzk7JiM5OyYjOTtMNDA4LjE3NTk2NDQsMzguMzUyOTk2OHoiIGlkPSLot6/lvoRfNDkzNyIvPiYjeGE7CQkJPHBhdGggZD0iTTI3Ny41MDI5OTA3LDM4LjY4MDk5OThjLTYuMjY4MDY2NC0wLjE0ODU0NDMtMTIuNDY2Njc0OCwxLjMzODYzODMtMTcuOTg0OTg1NCw0LjMxNTAwMjQmIzEwOyYjOTsmIzk7JiM5OyYjOTtsLTAuNjYxOTg3MywwLjM4Mjk5NTZjLTMuODY0NzQ2MSwyLjI3MzkyNTgtNy4xNDAwNzU3LDUuNDI1NTY3Ni05LjU2MDk3NDEsOS4xOTk5OTY5bC0wLjE4MjAwNjgsMC4yOTEwMDA0bC0xLjEwOTAwODgtMTEuNTUyMDAyJiMxMDsmIzk7JiM5OyYjOTsmIzk7aC0xOS43NjUwNzU3djk4LjMyMDk5OTFoMjEuNjY2MDE1NlY4Mi43MDg5OTk2YzAtNy4yNTcwMDM4LDIuMjgxMDA1OS0xMi45OTA5OTczLDYuODQzMDE3Ni0xNy4yNTE5OTg5JiMxMDsmIzk7JiM5OyYjOTsmIzk7czEwLjc5MTAxNTYtNi40MTcwMDc0LDE4LjcwMDAxMjItNi40MTcwMDc0YzIuNDcyOTAwNC0wLjAyMDkzNTEsNC45NDQ2NDExLDAuMTE2MzQ4Myw3LjQwMDAyNDQsMC40MTA5OTU1bDAuNjI0MDIzNCwwLjEwMDAwNjEmIzEwOyYjOTsmIzk7JiM5OyYjOTtjMC4yNjY3MjM2LDAuMDUyMDAyLDAuNjAwMDM2NiwwLjExODY4MjksMSwwLjE5OTk5NjlsMS4yOTE5OTIyLDAuMjc3OTk5OWwwLjA0Njk5NzEtMi41JiMxMDsmIzk7JiM5OyYjOTsmIzk7YzAuMDAzOTY3My0wLjMxMDY2ODksMC4wMDU5ODE0LTAuNTQ5NjY3NCwwLjAwNTk4MTQtMC43MTY5OTUyVjM5LjY2ODk5MTFsLTAuNjEyOTc2MS0wLjE2NzAwNzQmIzEwOyYjOTsmIzk7JiM5OyYjOTtjLTAuNzA1OTkzNy0wLjE5MzMyODktMS4yMzMwMzIyLTAuMzIwMDA3My0xLjU4MDk5MzctMC4zODAwMDQ5Yy0yLjAyNDI5Mi0wLjMxOTQ3MzMtNC4wNzE3MTYzLTAuNDY5MzI5OC02LjEyMDk3MTctMC40NDc5OTgmIzEwOyYjOTsmIzk7JiM5OyYjOTtMMjc3LjUwMjk5MDcsMzguNjgwOTk5OHoiIGlkPSLot6/lvoRfNDkzOCIvPiYjeGE7CQkJPHBhdGggZD0iTTE3MC40ODAwMTEsMzYuNjcyOTg4OWMxMi4yNzk5NjgzLDAsMjIuMDYwNjY4OSwzLjE1MzMzNTYsMjkuMzQxOTgsOS40NjAwMDY3JiMxMDsmIzk7JiM5OyYjOTsmIzk7YzcuMTI3MDE0Miw2LjE4ODk5NTQsMTAuNzczMDEwMywxNC44NTAwMDYxLDEwLjkzNzk4ODMsMjUuOTE3OTk5M2wwLjAwNTk4MTQsMC43OTQwMDYzdjY1LjkwNzk4OTVoLTE4bC0xLjMzNTAyMi0xMS41JiMxMDsmIzk7JiM5OyYjOTsmIzk7bC0wLjMxMDk3NDEsMC40NDUwMDczYy0yLjQyMDA0MzksMy4zMzI4NTUyLTUuNTI3NDA0OCw2LjEwNzM2MDgtOS4xMTE5OTk1LDguMTM1OTg2M2wtMC43NDU5NzE3LDAuNDE1OTg1MWwtMC42Nzc5Nzg1LDAuMzU2OTk0NiYjMTA7JiM5OyYjOTsmIzk7JiM5O2MtNS43NjM0Mjc3LDIuNzk4MzcwNC0xMi4xMTMwMzcxLDQuMTc2NDUyNi0xOC41MTgwMDU0LDQuMDE5MDEyNWMtMTAuNTMzMzI1MiwwLTE5LjEyNTk3NjYtMi43NzYzMzY3LTI1Ljc3ODAxNTEtOC4zMjg5OTQ4JiMxMDsmIzk7JiM5OyYjOTsmIzk7Yy02LjY3Mjk3MzYtNS41ODA5OTM3LTEwLjAyMDk5NjEtMTIuODkxMDA2NS0xMC4wMjA5OTYxLTIxLjg2MTAwNzcmIzEwOyYjOTsmIzk7JiM5OyYjOTtjLTAuMDk4MjA1Ni02LjA5ODY2MzMsMS43NTkxNTUzLTEyLjA2ODUxMiw1LjI5OTk4NzgtMTcuMDM1MDAzN2MzLjczOTEzNTctNS4xMDA3MjMzLDguODA1NjAzLTkuMDc4MzA4MSwxNC42NDgwMTAzLTExLjUmIzEwOyYjOTsmIzk7JiM5OyYjOTtjNi40NjI2NDY1LTIuNzE1MjEsMTMuNDA1MTUxNC00LjEwMzM3ODMsMjAuNDE0OTc4LTQuMDgxOTcwMmwxLjA0OTk4NzgtMC4wMDc5OTU2SDE4OS40Nzk5NXYtMi4zNTAwMDYxJiMxMDsmIzk7JiM5OyYjOTsmIzk7YzAtNi4wNTk5OTc2LTEuNTQ2OTk3MS0xMC43MTQwMDQ1LTQuNjI1LTE0LjAxMTAwMTZsLTAuMzQ4MDIyNS0wLjM2MDAwMDZsLTAuMzc1LTAuMzYxOTk5NSYjMTA7JiM5OyYjOTsmIzk7JiM5O2MtMy41NzQ2NDYtMy4zMzMzMjgyLTguNDk3MzE0NS01LjAwNTAwNDktMTQuNzY4MDA1NC01LjAxNDk5OTRjLTQuNzA4MDA3OC0wLjA2NDA4NjktOS4zNTk4NjMzLDEuMDI3NDY1OC0xMy41NDc5NzM2LDMuMTc5MDAwOSYjMTA7JiM5OyYjOTsmIzk7JiM5O2MtMy41NjE0MDE0LDEuODYwNTE5NC02LjY1NjE4OSw0LjUwMjAxNDItOS4wNTI5Nzg1LDcuNzI3MDA1bC0wLjE0Mzk4MTksMC4xOTk5OTY5JiMxMDsmIzk7JiM5OyYjOTsmIzk7Yy0wLjA4Njk3NTEsMC4xMjg5OTc4LTAuMjAwMDEyMiwwLjMwMDAwMzEtMC4zMjgwMDI5LDAuNWwtMC40NTY5NzAyLDAuNzMzOTkzNWwtMC40NzEwMDgzLDAuNzY4OTk3MmwtMS44NzA5NzE3LTEuMzc4MDA2JiMxMDsmIzk7JiM5OyYjOTsmIzk7bC0wLjQzNzk4ODMtMC4zMzAwMDE4bC0xMS4xNjQ5NzgtOC40ODY5OTk1Yy0wLjE4MDY2NDEtMC4xMzczMjkxLTAuNDUxOTY1My0wLjM1NDMyNDMtMC44MTQwMjU5LTAuNjUxMDAxbC0xLjAwNzk5NTYtMC44MzM5OTk2JiMxMDsmIzk7JiM5OyYjOTsmIzk7bDAuNjM1OTg2My0xLjE1Mjk5OTljMC4yMzkwMTM3LTAuNDE5OTk4MiwwLjQzMjk4MzQtMC43MzgwMDY2LDAuNTg2OTc1MS0wLjk2MDAwNjcmIzEwOyYjOTsmIzk7JiM5OyYjOTtjMy45NDgyNDIyLTUuNjE5MDAzMyw5LjI2MTcxODgtMTAuMTQwNjA5NywxNS40NDAwMDI0LTEzLjEzODk3NzFjNy4zOTYxMTgyLTMuNTgyMTM4MSwxNS41MzEzMTEtNS4zNzM3NDg4LDIzLjc0Nzk4NTgtNS4yMjk5OTU3JiMxMDsmIzk7JiM5OyYjOTsmIzk7TDE3MC40ODAwMTEsMzYuNjcyOTg4OXogTTE4OC40ODAwMTEsOTQuMDU4OTkwNWgtMjAuMjQ0OTk1MWMtNi4xODY3MDY1LDAtMTEuMTYxNjgyMSwxLjQzOTMzMTEtMTQuOTI0OTg3OCw0LjMxNzk5MzImIzEwOyYjOTsmIzk7JiM5OyYjOTtjLTMuNTE4MzcxNiwyLjQ0MTcxMTQtNS42MDE0NDA0LDYuNDY1NTE1MS01LjU2NDAyNTksMTAuNzQ4MDAxMWMtMC4xMzE0MDg3LDQuMDkwNDg0NiwxLjc4MDMzNDUsNy45Nzg0MjQxLDUuMDk5OTc1NiwxMC4zNzE5OTQmIzEwOyYjOTsmIzk7JiM5OyYjOTtjMy40NTkzNTA2LDIuNjI0NjQ5LDcuOTY2OTgsMy45MzkzMzExLDEzLjUyMzAxMDMsMy45NDQwMDAyYzcuMTQzMDA1NCwwLDEyLjc1NTAwNDktMi4xMzAwMDQ5LDE2Ljg5MDAxNDYtNi4zODYwMDE2JiMxMDsmIzk7JiM5OyYjOTsmIzk7YzQtNC4xMTkwMDMzLDYuMDcyMDIxNS05LjQ0MDk5NDMsNi4yMTAwMjItMTYuMDExOTkzNGwwLjAwNzAxOS0wLjcwNTk5Mzd2LTUuMjgzMDA0OCYjMTA7JiM5OyYjOTsmIzk7JiM5O2MtMC4wMDMyOTU5LTAuNTQ3OTg4OS0wLjQ0NzAyMTUtMC45OTEyNzItMC45OTQ5OTUxLTAuOTk0MDAzM0wxODguNDgwMDExLDk0LjA1ODk5MDV6IiBpZD0i6Lev5b6EXzQ5MzkiLz4mI3hhOwkJCTxwYXRoIGQ9Ik0yMi42MDAwMDA0LDEuNjY0OTkzM0gwdjEzOC41NDY5OTcxaDIyLjYwMDAwMDRWNzkuMDU5OTk3Nmg2Ny4zNDg5OTl2NjEuMTUxOTkyOGgyMi41OTk5OTg1VjEuNjY0OTkzMyYjMTA7JiM5OyYjOTsmIzk7JiM5O0g4OS45NDg5OTc1djU2LjY1OTk5OThoLTY3LjM0ODk5OVYxLjY2NDk5MzN6IiBpZD0i6Lev5b6EXzQ5NDAiLz4mI3hhOwkJPC9nPiYjeGE7CQk8cGF0aCBkPSJNODM5LjI0Mzg5NjUsMC45OTk5OTMzYy0zOC41NjA1NDY5LDAuMDAwMDM3My02OS44MjAwNjg0LDMxLjI1OTU0ODItNjkuODE5ODI0Miw2OS44MjAwNjg0JiMxMDsmIzk7JiM5OyYjOTtjMCwzOC41NjA1MjQsMzEuMjU5NTIxNSw2OS44MTk5ODQ0LDY5LjgyMDA2ODQsNjkuODE5OTM4N2MzOC41NjAzMDI3LTAuMDAwMDMwNSw2OS44MTk4MjQyLTMxLjI1OTUxMzksNjkuODE5ODI0Mi02OS44MjAwMDczJiMxMDsmIzk7JiM5OyYjOTtTODc3LjgwNDQ0MzQsMC45OTk5OTM2LDgzOS4yNDM4OTY1LDAuOTk5OTk0MkM4MzkuMjQzODk2NSwwLjk5OTk5NDIsODM5LjI0Mzg5NjUsMC45OTk5OTQyLDgzOS4yNDM4OTY1LDAuOTk5OTkzM3omIzEwOyYjOTsmIzk7JiM5OyBNODM5LjI0Mzg5NjUsMTIxLjE1Njk5MDFjLTI3LjgwMDI5MywwLjAwMDU4NzUtNTAuMzM3NDAyMy0yMi41MzU1NzU5LTUwLjMzODEzNDgtNTAuMzM1OTM3NSYjMTA7JiM5OyYjOTsmIzk7Yy0wLjAwMDQ4ODMtMjcuODAwMzU3OCwyMi41MzU2NDQ1LTUwLjMzNzQ3ODYsNTAuMzM1OTM3NS01MC4zMzgwNjYxJiMxMDsmIzk7JiM5OyYjOTtjMjcuODAwNTM3MS0wLjAwMDU4NzUsNTAuMzM3NjQ2NSwyMi41MzU1Nzk3LDUwLjMzODEzNDgsNTAuMzM1OTM3NWMwLDAuMDAwMzUxLDAsMC4wMDA3MDk1LDAsMC4wMDEwNjA1JiMxMDsmIzk7JiM5OyYjOTtDODg5LjU3OTgzNCw5OC42MTk5MjY1LDg2Ny4wNDM5NDUzLDEyMS4xNTY0MDI2LDgzOS4yNDM4OTY1LDEyMS4xNTY5OTAxeiIgaWQ9Iui3r+W+hF80OTQxIi8+JiN4YTsJPC9nPiYjeGE7PC9nPiYjeGE7PC9zdmc+;" vertex="1" parent="1">
          <mxGeometry x="76" y="277" width="205.35" height="38" as="geometry" />
        </mxCell>
        <mxCell id="u-NJwBv3rZono-T8brO3-112" value="" style="shape=image;verticalLabelPosition=bottom;labelBackgroundColor=default;verticalAlign=top;aspect=fixed;imageAspect=0;image=data:image/png,iVBORw0KGgoAAAANSUhEUgAAAEQAAABECAYAAAA4E5OyAAAAAXNSR0IArs4c6QAAF8pJREFUeAHtW2mUHNV1vlVdvU3PopHUGmnQMggQoA2xGWwWDY53O3ESTBacnDj+YTtO+JOc2Md/jHSynJDjYBI7OPExB+MFY5NzEjvEy4mAETGLkMTOsEQWAxIgGEmzdvdMd1e9fN99VdXVPa2ZkSAx8fEbVb3tvvvu/d69972qLon8Mv0SgfkQcObrPFGfMcYZl8PbfTGbgsBfLRKsdMXxTkTP9qx0T3W6y6ZOQJOq+n7fCfoW2xw4xhwNjDnsue7BVCr1E8dxZhY7OKI7KUBG6nuuLZmJz02bY+dWTTkVMVlMvia1TdalLmhL6geBjJVKbftOtdF1HANQXsL1ja5s9vOL5bMoQF4wD2+f9o/eNhEcWUvrWCzzJN3/NSDJuWExkxnP+2whl/unZHu7stuuMdl2wL//C6/Wnrl33H913amCkeT38yjXg6C7XK1+ZbJSuW8hHeb1+2fr995zxH9ucCEmPw8lT2XO2VrtCuhyGNdGxJeJdjxOaCHP13f/y6h/8KpfFDAi5av1ev9EpfJYVG/N2wJywH/wM68HB3+zlfgXpV6r1wemKpWftNNnDiDHzb6eY/7IXxkTnFLwbDfJW7Fttl5/d2lm5v2tss0BZNSfvh1b6ryxpZXJW7X+/Jgr33my/emAoQDB9pZW2ZsAoXUcDw69r5Xo/1v9wJgjf/SfOfnM91NycKo9INQJ8WRVeXb2d5L6NQMSVP+sbqpNbUnit3r54Lgjf7IrJ5d9uyCHDtZkuJqRbSuDecWGlVyXJGhyjdlg6reSnVHZmKiE/BQjC1kk2SQ4anvbvkSjM8+8L046cuPerHz3GU98jLk8XZKfOTkZm3Vk2wo/OdWcMk7JFyYbmwApm4nTk51v9fKhKUdu2puRbw+nFQjKe2WmJE+XMnIsnZKlOSOndSZQbaNQ3feziCercC55ld1NgNRkJh2NARGK4bLMszoRPXOOsaRtBpBdk2ygxbI3NSWZsZxgk7TSV0oAYl9GvvV0WuoJj7gCYOw55Mpsn1Xj/L5EZyvvRL0ush5VBSSOF1Cm2zc1FcFOjiJrCaESPGyRhJGiyJ1oQDRuvhy0Ok9iPBtOOB06Xi078rn7snLxbQX5+pMNMDhmew5gPGckWJWPxTxvAXeJCB3fXxuVkxay1AKBrhapktaiXVH/CRw75pNgxDbbTgRsooVoYhYybvSijWOQvQYgvrQ/Lbc9lZFqS0jgsCvzJbn/EV8yG7uknDCKbYu0kCAIloGNpggQZ4ZvDmLBwl5kVgmsvQrcaI9KDUXbEzSNUwUbdJY33qZAiSCgC0GExIDXK458+ZGMWsMM7Lo1kdP2Qlnue8CX3MYOKbc8iJ9XbEGvlUGbOgAJueTQW21QRMIm5Is7KbxI7G3R4tr+hr4xvRbYjiHtuh2w03hCwHAdBRA3P5qWW5/MSKUNEOTH2a8EGEP316XrrKxMpaO1Za/I8ryR/gUCqqVsvlsu1C9MkXuo4Anpmy0BHfyX6KcmCqLim+ywjAMQt38YgHmQHNcYrPTmRzNyyxMZKdciiebmSTA6T/OkVMjOIVqsu7QO9JJhXhWCZE2KYgRN2kodghDpqyBElhI1hlOg2YJr6wZmwCt2idjXXTkGx/+bBzLyNVhEKWGlIaemzMU0g51luee/6pLvdaTa1xHK10QmW+EunD+er7n7hLXYzmZnwrEJvZqAiPQGKxO7TEiMDO8yCaX+6Wy68A1mDiyHV3IBxmdF/mGvyE0POzKFU+VCKQlGGkaRGihIJQa2ebQ9kNmdrHWBmymbaxaQneJkP4uOhvxAPawgixia2FJsXwDtXHozXA4vmS1ntRo2hHVtteeNSPZJWMGX9hr5+4dFJgDKYlIK7Aa7ynL3fXWdqfOcvIyZxCq1MDmPOwxFgCgQKdahhWxO1ROAsYPNYVDl4Oi1qRPNp0raCgwfxNYSIhDwqgBNITHRw0U+pGOi6RLfiZqRm/fDImAV49zVFpkUjO6S3L3b7hpLz8nKMSc+Q87hUuwwsqqgAlgRVCcVaw5ta4O3I2yZnZ2lh0c6WFjDDcgqaF2Cm1JkMRyqANJKOFZRsCCEiGjzTD0tX31khdwKII5XwgkXmaXAerAHlnGvBaMHQXSSQXSeHfW8YqBLEUIS66R13JLyt4qhLvP0xjuhxTUNnaBYFIyUCZeXBXCKmNFS6DBhh4KhlhUSkHym7skPHj9bvrt/k0yU5+4ErcK01j2w394DywjBKCxxxe/PS22eHYg8tvUxoLKEWyQwq2FiX5tm7fViMFBVJgkwbKCEVAkGMRCcELTWqiIXYZsjs/WU3PXEWXIHgBgr0RdPPtEykmCkEXNzZ+XlmH26mJfhVhzZrWSh1Sa1pwFD9hOBAguBZSAhtpEUyGmGXYMNBAN126Q7Seg42s4u7kQaUTBuFit311Nnyx17N8nxUuOZgnxPJjFmbMfWGlkGxy7bnJMjtRO/7EnyP28FwzcDeeTmiRUlIfVRUBqewGYmdZnRolU51Dti0wIGe6E6oQVOBMwgyuO4hecLV3701Jly+8Ob5dgbAIICEYwrCiW5575GkCienZbXzcLbMsczoK6MAipWbH5QIo050iZPDWRIQdNe6KnoWctgDSrTFJgIAiyBWzItyQcQP3zyTPnO3i0yOt1had7AnWBc3oHj+E8bYHSvSMlUd16CBeJGNO02WEfsDhQ7snDkWo0ImaOBtMnkjQ4NOVNdXeiyL44YGPUAZR8wGucRBYOW4aqb/GT4DPnWni3y+lQhye+UywTjslxZduPZJEpZsDZr8zKzSDA4Th/5ISvjnxuehSKA4jyaIMzxtBu3wGUGQyisGxAHhZKWATqtcgKU/MCTXcOnyzcBxJHJzpjJGy0wgL4dr/3ue7BhGdSlcHaHHK+j8yTSFj7hYiwXNQJALRs6oNlaBAtR0nJjDm8QHa/gYlBlRKBLMBEIBQP3Gqzi7mfPkG8+tFVenXjzgOA8tIy3p2fkp3saYLB9CQ5fx7EAJ5u4w9jd0YKi46kSlNF4Qv2sYq2slcp75XlxxnqHneqGMxyTtiNJz7hBhHc9tx5AnCeHx7paGbzhugWjAjCafaKrH4evPM4tDUte1Fx9CKYrEcooNx8d9OGSZSTdPaFTnGLzQYsaCAkd7DIMHfmNkp2Fjehp2ALBzgOvL5U79m3+XwPjkhTAeLgZjFwPnmBX5pvelcZKLFCgu6hasAI+gDrR85QqbwfHOCTBafB13LGDw870iwccyWJFQE2GdryRM1ccl3/+6H/In7/nASniXPBmJcp5sVORB/Y1g+FhQVLrOmQ2erA8yQl5/lD5OU5dA/qwgdFDkWI5kbQvrGtZz94b5ZLXPGtLRFYHMmcTj2ZG3n3OQbn1Yz+Qj1/2mBSyzUok2C+qSDe52FTkoUfm8smdmZOSu7jDV7vJthTrKr8uqy4u9Ij+WLfohDq240Dv2cSOAe3VwQBED19EOETWcV3JpAL57QuflVt///vyG+c/L557kg4OblT1Ar8sex6bC0ZhTVqms4s7fKmwbW5bluOhDmJTb11X0rBAPdChJxGqlUwhSNoEWlfdZYCvU/EzVziQgy2aeGwnc16qfyBd+bp84rL98tXf+7FcedZLSdbzlgnG+QBj7xONc0Y0INvryszyUz/qkw8DajFvD2WKCnUgGmFOfVSPEADVT8FpRsitvHbYtmSyOHeAAZIdg9BLfrAORRmbcvQGjZ7W1zkln33vw3LjR3bJ1tNGddyJbi4ONxurx2Tfk3PB8DI476wpxL+8nYjHQu18ZUiDVw0gqAKAFlVOG1HSfzYPe+aw9QZkUBsxxrwj8wda1piGGBKEL358H9EbwNiDGqwGBNzreZ1/misfuTqQe0eM/PX9jjx3rHkOxoytlYo8+uzcFzroEvf0vFSj3aB56EnVLlntydLuTrg7VAVjnlLJn5dNfNAL6yjYXvvwB71iqbH8NtWqkcvQQsIARJTUXIA8RpGJ7UOZloM647oD69m+zsgPrzVyw6/gLBCe3QjG5nIZYMy1DM6aXpOVav7kD19W4ub7tpUQVhO1hZyxlVggrOlEkDBnIq0tRXcFZGI0dBttDQdpFlITch3JSa1ZEhgCQSvhns8eB/nV5+Iw99FA/vRSI1sqZXn8ufZgeL2e1Jad/EsjFbHNbdsKK6u+3acpQzY1Fcit0lGHUA2ltORzOLkygLbVYXtIlKTVuIIGGoq6ELmCOR+Iop8VaCWcTXdquFkWu/gnLzBScNk+N7lZANmfs4s2t/ukW/pxiOYPU1wcm7BoXKjwssA0LD9uT8y0Y+dOVdu6zBrsMlU1gwQJimETGSi8CgzK2h6CEnbRRHVVAAwB4t97L2rjDpwR70WDtJ26ecJTq23jR+G0CCbIw7kb4Fg3V20pa2QmmluQ9Dwg17Oz8TlE3nM68B2nNnKzaQRUWgKV50QBdgNaAtjjyxTGdaWNch+0AI8frVCw7ZuM8EkWzXFyCzUJurvj+ptRWLVU5ImyjRUpnjEhg/4OxMCqSCAPFzXCjfNqF+6dKVkRyREvIV4ALpmasUyJriKMU6NPJcGVG04TIKhHgPicDED5IDIaVyz7DM5ZF21wZM+zRMgKkHnoGalPrZb6lrU4qb05VlLB65y7p+giUJxuqtNBXd1yOK8FJsQkBCIUCLQXdMp6FRA3V0ZwPxRVW/NQEQuz1cg2tRK21C32bHzntkRXtSputSaZR1+Q3L/ukf7adKLz1IuremmZ0Xi7qFbrqJF5KFNEiNyGgmiczXWJemZX25F6pweGKazbGir4Zx+jw0VoUCqJS3vERA048H50M9wmfDxxq40HxHVFT+76ZF7+8QOBrHoDHtRdcKQDn04pIrpwtAyIo4rTVUJdkEVytQOCVCSNbTadzuLbbzJmFwfb4fYtPJTEZPZiL+pUXAWIcqySjmNvyAR5T8GVi8/iGEyGAxpTJp+WL39xk3h4/3L5GiN/92Fftm8JpOWLBqVd6LZqaSSwldf+7oxRqIaYaKU9CHYMzksq2E7sNO6I+ozI96bSz0JBatdQPlJMg6I9mFFARBTc8CQMi9BJcXP1oGZpQtEsH1C/c5ttcWYsIH/xl+dKX18WXCyYaUj09nOMfOJ9gZy7NgKTMy2cVum3P5b/wtSNhab8UXID/0BclhCQVxD8Uy6PVkiMoEyoqaIcCwbss3zQQFsEHY/I+M86ei5Rq2IXr3CJOOrKrY66jVuqyAevXidXXrZEeXEKXTkASt5deNv14UsDufYqPKj1sHfh1B9/DAVaXR1kIXeK3T419yAQD0d0br4P8WME1UOHqdw4O1QZMoWyOgkm4qmUZbLSWEHCsE4R2A9A0QiQMFTdSZGB2+BB9qIzcaRflZPPf2YdeFg+pOZFMHSesLK2aOTj7w3kXecbyc59BCJ1nLjlxoHCrlbct5gCz4gTE0cejWjdzmlIisTAiueT3bGSYG6BoXIggLWoR+lIuEa4GrQOJmJB82JdXQH9bNN+5L9+oZGvf2Wz0trYo0XlrQ9i3IKVAV51w/r4HHTxWYF86oN4ODxdRbQDEvce/EzRwVcoLd2R3C3NiZGNYn9aXrrzwQfjz3QgxTAMZEQpZtz0TdRPD16h2zg4kdn4AGBwLiEOIEEbtg4WIE0MAiVDmxqKulRkCUbedWlG+pamEMXhYiCILgWHTCk94hDPuWTC4USrkA3kQ5cY+cP3YDdKuge6ta4LQkE4AEllmlO0DfE9pEW9JyX/Fjej4Pau32he66ur23zx0SP7MmnvlVAvZBioCFnrsFYCgVUI5KoIAIMQKbSpK+BwRNfh9kXZaEkEjP0Umhkp2a/gsKavDQmejV0Eg68gCBZF55j+pY6C8oG3GWyz5BUCQgrKgdE21y5b50B22Zt2RPGFtN14vpw1smPTNdcoFQkol1i3GVG3qXnZT8FkIR3FtUI5GjyVVIW3SvKgmcIFukhpHDjUYcBeQeEQlMnHKo8c2sJtoSTBYc6dyVeledx2ceEf6tzBADZ9h4kZeF0AD//0hwKcgPHZNuJHvGghWTyhDuI425F006hrfVpuuXOXNJ0O3f4pMb3rxewJreQLj7y6C1bymFWE01FwKk2hUePOQyEpdfKrFQXFzg9VdLEIAo/SrNMH6HpsI4hqIQSOdV1JhVJfRKllBD7mgVuCr6KB6UjmOCnBMUbef7HI6atoa+zFPSKDrKGhoY1nI3Y0J/LH19+TNz0+dF2y5/rrrzfuUNiStJKhasdVmXTquFpJyI+T0vS5wrRnrizjiAqEdjVugOUhONrVoCh8uMMYXOynZdC9mJQXrYtjqQRBR90AeD45u/qQRhdi3GIOOg6mkpRBE3IFjN1kTLfDXW/o0zYS2j4dhTY8zNXXpZ0r2JNMpOJCIe2XpJUMT8jsUfGuwP93nVUFVAAIRBOG0DoxVop1Wg1pKKwFJcCZA7+Aoc4TOydhssBQaQgdjuNYLmcAEOyygj8B5SOnflBHgPCRnQKPubSNeuqEJMLFMoss49IJVRLFg1LFdOjmNrshLx+74XEZLg4OclBTcouDYp6/EHsiUud01eiOMyLytfHXX3jZFDZ56fQoYwT/1HVgylRYXymq6XNCKIK7ykk6PCETgBSUU7AIAPsxSwqWwPHaj05alILFTYuWguV1DD+fBUgKHAACfwtvaB2YiE/eypMTaCkcb+Ny1II+yg0azL0kJdXNWfnVf/9v+R46RO7Ue9PN1cYhRPELGUuw40zZHaenvtp8e0peufHx0hl4zrkXfg6WxI0C++LhAzADxTkXlaQusRtQSCgDCo0PHmJBCsMZelQ5sGHwpKr2skBQMroMAbZuBDoMUsugK4GHtqsUpEaiVASOlmerqKMRtPxTebGip2flwDJ/dtM3dg3vkv37OTJMQGVnVI5cZrfI0BAb98uad5wZ7OkDJ9R78ENYbd3y+nU/mvq1CT93adrzhuEykAtTQwgFhXMi2dMphQIQQIlAUVp1M/ajgRZD8DwqSeXAg3z0ovAYozEFgOo5BUCaOgAK8bJgkDHnIQ+dROdiXb2Gc4OCtJjGrMmaIxd1OL97z12y5fYnDx3iovdvoEcMgUqkseXu1Dq8lXZTxDUodJ0N+8XpnB6G63Q4AyMDcLrDiC+pYMc948PFYvGSS3qP9Vy1vuuP8SvOh+H9ffCaQt0P8OsKjZrfkFizdunvkIzvZG0QdOqoVNQBILke/6koyl5KMrm0k6VE1howhq/oaGkZjAhPsFz1CAzytiBgAUCHqmQdp55xTRnvco93pszdiEM33l+RFw89JRoKijyV493YEGiLo4PhUqKCtAM7DHOPCD0NTEZ3D4HnoPQPcqk2ythBCUZGRtyBgQHUD4usl2D04Ki7R4oTd/344A2F4vq/rZYmnN6i65ZnHXdmrORmu1c4bu2oW08VnKpXcd266wZuzkm7s0665jp+fsqplehc0NWfdjOCt8MKAxrw8QF+PRQ3nTVBB8xmElh42aCWNiYV8IXHEbhFj18tVUyhM+dX/Q5TGh3FYuXqaXjTWDUIMkd7TKn2gikW1/tT1ddMfllgCvgPNiMjqyXfN2B6V0A3ussGfvLARGOwHx1qFbfUoLPDWfFpkdLogJT3iTOCxi3vEKnP4EOanx116pVJZ6ZrrXTjv8qnlosce3nGkeJqUxs96MwuWSU+PkleXug2Dt5aVafHpZwpYKU6TMYr8cWHyeCH7VrdkXq+03hVCJROmbyXCtxsB8JzDfahP2IEJmWCdL7gu34NtpENvFQBX295xjVHJeiqBfVqpy9+2XQsywfV4wBjfARgdDfAqAOMqTHTlc0EY5Ml6TrNN4U+3/SMrjaPkVaWmHwvYmVXP6xlSArlAbgLXvruJBQ7ZWhwkAUAMrjDkd0iFhSJQVmW3e/0rNlsJktLJDM65Kzs2irBywBlPT7IffkQQNlg8pXjkunodWawQpMOlrirKj3ZpUF1eho+XMM+UZOcswy/WJRMZxoAVCalNjMtMBbj4j/COH7OOGkPj072gl0YU60bt1bHrwBjxst6ASALzETFAD/0Lg/88XFxuoxfWJEPOG+ZlgEwxtG+ZKUfTMGielcWg0Jfl+k50G1GRvCD2NuWBL1d1jr2L+uHu9DqofMm3KD7jusHtc62/wHi3gbpiXrJnQAAAABJRU5ErkJggg==;" vertex="1" parent="1">
          <mxGeometry x="298" y="263" width="52" height="52" as="geometry" />
        </mxCell>
        <mxCell id="u-NJwBv3rZono-T8brO3-115" value="&lt;font style=&quot;font-size: 16px;&quot;&gt;AGConnect&amp;nbsp;&lt;/font&gt;&lt;div&gt;&lt;font style=&quot;font-size: 16px;&quot;&gt;Auth&lt;/font&gt;&lt;/div&gt;" style="shape=datastore;whiteSpace=wrap;html=1;" vertex="1" parent="1">
          <mxGeometry x="1155" y="436.09999999999997" width="120" height="191.77" as="geometry" />
        </mxCell>
        <mxCell id="u-NJwBv3rZono-T8brO3-116" value="&lt;font style=&quot;font-size: 16px;&quot;&gt;AGConnect&amp;nbsp;&lt;/font&gt;&lt;div&gt;&lt;span style=&quot;font-size: 16px;&quot;&gt;Cloud DB&lt;/span&gt;&lt;/div&gt;" style="shape=datastore;whiteSpace=wrap;html=1;" vertex="1" parent="1">
          <mxGeometry x="1316.25" y="436.09999999999997" width="123.75" height="191.77" as="geometry" />
        </mxCell>
        <mxCell id="u-NJwBv3rZono-T8brO3-117" value="&lt;font style=&quot;font-size: 16px;&quot;&gt;AGConnect&amp;nbsp;&lt;/font&gt;&lt;div&gt;&lt;span style=&quot;font-size: 16px;&quot;&gt;Cloud Storage&lt;/span&gt;&lt;/div&gt;" style="shape=datastore;whiteSpace=wrap;html=1;" vertex="1" parent="1">
          <mxGeometry x="1490" y="436.09999999999997" width="120" height="191.77" as="geometry" />
        </mxCell>
        <mxCell id="u-NJwBv3rZono-T8brO3-121" value="Cloud" style="ellipse;shape=cloud;whiteSpace=wrap;html=1;align=center;fillColor=#e1d5e7;strokeColor=#9673a6;" vertex="1" parent="1">
          <mxGeometry x="1200" y="446.09999999999997" width="100" height="60" as="geometry" />
        </mxCell>
        <mxCell id="u-NJwBv3rZono-T8brO3-122" value="" style="shape=image;verticalLabelPosition=bottom;labelBackgroundColor=default;verticalAlign=top;aspect=fixed;imageAspect=0;image=https://developer.huawei.com/consumer/cn/service/josp/agc/static/img/logo.dd58f71c.png;" vertex="1" parent="1">
          <mxGeometry x="1129" y="636.0999999999999" width="270" height="45.24" as="geometry" />
        </mxCell>
        <mxCell id="u-NJwBv3rZono-T8brO3-123" value="" style="sketch=0;pointerEvents=1;shadow=0;dashed=0;html=1;strokeColor=none;fillColor=#434445;aspect=fixed;labelPosition=center;verticalLabelPosition=bottom;verticalAlign=top;align=center;outlineConnect=0;shape=mxgraph.vvd.phone;" vertex="1" parent="1">
          <mxGeometry x="1140" y="185.5" width="90.27" height="153" as="geometry" />
        </mxCell>
        <mxCell id="u-NJwBv3rZono-T8brO3-124" value="&lt;font style=&quot;font-size: 20px;&quot;&gt;运动详情页&lt;/font&gt;" style="shape=note;whiteSpace=wrap;html=1;backgroundOutline=1;darkOpacity=0.05;fillColor=#ffe6cc;strokeColor=#d79b00;fontFamily=Times New Roman;fontSize=16;" vertex="1" parent="1">
          <mxGeometry x="1319" y="190" width="296" height="144" as="geometry" />
        </mxCell>
        <mxCell id="u-NJwBv3rZono-T8brO3-127" value="" style="shape=flexArrow;endArrow=classic;startArrow=classic;html=1;rounded=0;entryX=0;entryY=0.5;entryDx=0;entryDy=0;entryPerimeter=0;" edge="1" parent="1" source="u-NJwBv3rZono-T8brO3-123" target="u-NJwBv3rZono-T8brO3-124">
          <mxGeometry width="100" height="100" relative="1" as="geometry">
            <mxPoint x="1302" y="246" as="sourcePoint" />
            <mxPoint x="1402" y="146" as="targetPoint" />
          </mxGeometry>
        </mxCell>
        <mxCell id="u-NJwBv3rZono-T8brO3-130" value="&lt;font style=&quot;font-size: 14px;&quot;&gt;结构化数据&lt;/font&gt;" style="text;html=1;align=center;verticalAlign=middle;whiteSpace=wrap;rounded=0;rotation=90;" vertex="1" parent="1">
          <mxGeometry x="1378.5" y="378" width="83" height="30" as="geometry" />
        </mxCell>
        <mxCell id="u-NJwBv3rZono-T8brO3-133" value="" style="shape=flexArrow;endArrow=classic;html=1;rounded=0;exitX=0.26;exitY=0.992;exitDx=0;exitDy=0;exitPerimeter=0;fillColor=default;startArrow=none;startFill=0;" edge="1" parent="1">
          <mxGeometry width="50" height="50" relative="1" as="geometry">
            <mxPoint x="1405.9952511415522" y="461.4200000000003" as="sourcePoint" />
            <mxPoint x="1406" y="335" as="targetPoint" />
          </mxGeometry>
        </mxCell>
        <mxCell id="u-NJwBv3rZono-T8brO3-132" value="" style="shape=flexArrow;endArrow=classic;html=1;rounded=0;fillColor=default;" edge="1" parent="1">
          <mxGeometry width="50" height="50" relative="1" as="geometry">
            <mxPoint x="1353" y="333" as="sourcePoint" />
            <mxPoint x="1352.9952511415524" y="466.7999999999999" as="targetPoint" />
          </mxGeometry>
        </mxCell>
        <mxCell id="u-NJwBv3rZono-T8brO3-134" value="&lt;font style=&quot;font-size: 14px;&quot;&gt;数据请求&lt;/font&gt;" style="text;html=1;align=center;verticalAlign=middle;whiteSpace=wrap;rounded=0;rotation=-90;" vertex="1" parent="1">
          <mxGeometry x="1300" y="375" width="68" height="30" as="geometry" />
        </mxCell>
        <mxCell id="u-NJwBv3rZono-T8brO3-119" value="Cloud" style="ellipse;shape=cloud;whiteSpace=wrap;html=1;align=center;fillColor=#e1d5e7;strokeColor=#9673a6;" vertex="1" parent="1">
          <mxGeometry x="1370" y="446.09999999999997" width="100" height="60" as="geometry" />
        </mxCell>
        <mxCell id="u-NJwBv3rZono-T8brO3-138" value="&lt;font style=&quot;font-size: 14px;&quot;&gt;远程URL&lt;/font&gt;" style="text;html=1;align=center;verticalAlign=middle;whiteSpace=wrap;rounded=0;rotation=90;" vertex="1" parent="1">
          <mxGeometry x="1353" y="378" width="83" height="30" as="geometry" />
        </mxCell>
        <mxCell id="u-NJwBv3rZono-T8brO3-140" value="&lt;span style=&quot;font-size: 14px;&quot;&gt;二进制文件&lt;/span&gt;" style="text;html=1;align=center;verticalAlign=middle;whiteSpace=wrap;rounded=0;rotation=90;" vertex="1" parent="1">
          <mxGeometry x="1547.75" y="379" width="83" height="30" as="geometry" />
        </mxCell>
        <mxCell id="u-NJwBv3rZono-T8brO3-141" value="" style="shape=flexArrow;endArrow=classic;html=1;rounded=0;exitX=0.26;exitY=0.992;exitDx=0;exitDy=0;exitPerimeter=0;fillColor=default;startArrow=none;startFill=0;" edge="1" parent="1">
          <mxGeometry width="50" height="50" relative="1" as="geometry">
            <mxPoint x="1575.2452511415522" y="462.4200000000003" as="sourcePoint" />
            <mxPoint x="1575.25" y="336" as="targetPoint" />
          </mxGeometry>
        </mxCell>
        <mxCell id="u-NJwBv3rZono-T8brO3-142" value="" style="shape=flexArrow;endArrow=classic;html=1;rounded=0;fillColor=default;" edge="1" parent="1">
          <mxGeometry width="50" height="50" relative="1" as="geometry">
            <mxPoint x="1522.25" y="334" as="sourcePoint" />
            <mxPoint x="1522.2452511415524" y="467.7999999999999" as="targetPoint" />
          </mxGeometry>
        </mxCell>
        <mxCell id="u-NJwBv3rZono-T8brO3-143" value="&lt;font style=&quot;font-size: 14px;&quot;&gt;远程URL&lt;/font&gt;" style="text;html=1;align=center;verticalAlign=middle;whiteSpace=wrap;rounded=0;rotation=-90;" vertex="1" parent="1">
          <mxGeometry x="1469.25" y="376" width="68" height="30" as="geometry" />
        </mxCell>
        <mxCell id="u-NJwBv3rZono-T8brO3-118" value="Cloud" style="ellipse;shape=cloud;whiteSpace=wrap;html=1;align=center;fillColor=#e1d5e7;strokeColor=#9673a6;" vertex="1" parent="1">
          <mxGeometry x="1540" y="446.09999999999997" width="100" height="60" as="geometry" />
        </mxCell>
      </root>
    </mxGraphModel>
  </diagram>
</mxfile>
